<?xml version="1.0" encoding="UTF-8" standalone="no"?>
<!-- Created with Inkscape (http://www.inkscape.org/) -->

<svg
   width="157.6881mm"
   height="65.49601mm"
   viewBox="0 0 157.6881 65.49601"
   version="1.1"
   id="svg1"
   xml:space="preserve"
   xmlns="http://www.w3.org/2000/svg"
   xmlns:svg="http://www.w3.org/2000/svg"><defs
     id="defs1" /><g
     id="layer1"
     transform="translate(-27.566407,-99.832059)"><g
       id="g1"><path
         style="fill:#e6e6e6;stroke:#000000;stroke-width:1.95;stroke-linecap:round;stroke-linejoin:round;stroke-dasharray:none"
         d="m 52.839583,150.98801 c 29.476321,-1.9307 36.461155,-18.40783 36.461155,-18.40783 0,0 2.42939,13.03424 -3.093516,19.48227 -2.554612,2.98252 0.336308,7.68198 2.365327,7.31859 9.71414,-1.73978 12.188291,-22.4415 12.188291,-22.4415 5.76676,0.39065 10.83938,13.61647 9.59901,18.65209 -1.42054,5.7671 0.39941,6.00333 2.10195,6.16483 2.29444,0.21764 4.24602,-0.40631 5.48135,-4.14793 1.15551,-3.49982 2.57426,-11.07968 1.97936,-14.51441 0,0 15.26357,8.25597 16.58506,13.74469 1.32149,5.48872 9.28269,3.15939 6.8948,-2.72726 -1.87203,-4.61494 -4.59967,-8.82918 -10.90218,-12.90554 -3.89261,-2.51768 4.22279,-6.62932 4.22279,-6.62932 0,0 -13.47391,-22.83287 -30.97896,-23.17516 -17.505059,-0.34228 -29.19521,-4.20654 -42.40692,4.85113 -13.211711,9.05766 -22.549951,19.376 -20.191368,29.42273 2.358584,10.04674 9.693851,5.31262 9.693851,5.31262 z"
         id="path6" /><path
         style="fill:#999999;stroke:#000000;stroke-width:1.95;stroke-linecap:round;stroke-linejoin:round;stroke-dasharray:none"
         d="m 84.931645,121.41174 c 20.432025,4.79064 29.632065,16.55913 51.791335,13.16495 22.15927,-3.39418 45.08937,17.0984 45.08937,17.0984 0,0 -10.72277,-31.69842 -40.27101,-33.7773 -9.90416,-22.218311 -101.672861,-27.800812 -112.259411,14.21336 -4.74488,18.8307 13.626106,35.95485 41.454131,31.54035 0,0 -22.088318,-9.9907 -21.976748,-22.03703 0.11157,-12.04633 15.740311,-24.99337 36.172333,-20.20273 z"
         id="path1" /><path
         style="fill:none;stroke:#000000;stroke-width:1.95;stroke-linecap:round;stroke-dasharray:none"
         d="m 181.81235,151.67509 c 0,0 3.26975,5.29672 2.2706,10.32744"
         id="path3" /><path
         style="fill:none;stroke:#000000;stroke-width:1.95;stroke-linecap:round;stroke-dasharray:none"
         d="m 147.48695,121.98348 c -2.6143,-1.45878 -0.3999,4.03102 -0.3999,4.03102"
         id="path4" /><circle
         style="fill:#000000;stroke:#000000;stroke-width:1.95;stroke-linecap:round;stroke-dasharray:none"
         id="path5"
         cy="129.7782"
         cx="157.93544"
         r="1.6735249" /></g></g></svg>
